<svg xmlns="http://www.w3.org/2000/svg" xmlns:xlink="http://www.w3.org/1999/xlink" viewBox="0 0 256 256"><defs/><defs><linearGradient id="d"><stop offset="0" stop-color="#0a1314"/><stop offset="1" stop-color="#0a1314" stop-opacity="0"/></linearGradient><linearGradient id="c"><stop offset="0" stop-color="#424a4b"/><stop offset="1" stop-color="#424a4b" stop-opacity="0"/></linearGradient><linearGradient id="b"><stop offset="0" stop-color="#0e191c"/><stop offset="1" stop-color="#0e191c" stop-opacity="0"/></linearGradient><linearGradient id="a"><stop offset="0" stop-color="#f5f4f1"/><stop offset="1" stop-color="#f5f4f1" stop-opacity="0"/></linearGradient><linearGradient id="s"><stop offset="0" stop-color="#626463"/><stop offset="1" stop-color="#626463" stop-opacity="0"/></linearGradient><linearGradient id="r"><stop offset="0" stop-color="#b9b5b4"/><stop offset="1" stop-color="#9d9290" stop-opacity="0"/></linearGradient><linearGradient id="q"><stop offset="0" stop-color="#473e3e"/><stop offset="1" stop-color="#473e3e" stop-opacity="0"/></linearGradient><linearGradient id="p"><stop offset="0" stop-color="#b1aba9"/><stop offset="1" stop-color="#b1aba9" stop-opacity="0"/></linearGradient><linearGradient id="o"><stop offset="0" stop-color="#e0d8d4"/><stop offset=".6764706" stop-color="#e0d8d4" stop-opacity=".454902"/><stop offset="1" stop-color="#e0d8d4" stop-opacity="0"/></linearGradient><linearGradient id="n"><stop offset="0" stop-color="#cfcdc7"/><stop offset="1" stop-color="#cfcdc7" stop-opacity="0"/></linearGradient><linearGradient id="m"><stop offset="0" stop-color="#444544"/><stop offset="1" stop-color="#706062" stop-opacity="0"/></linearGradient><linearGradient id="i"><stop offset="0" stop-color="#bebbb6"/><stop offset="1" stop-color="#bebbb6" stop-opacity="0"/></linearGradient><linearGradient id="l"><stop offset="0" stop-color="#8f908a"/><stop offset="1" stop-color="#8f908a" stop-opacity="0"/></linearGradient><linearGradient id="j"><stop offset="0" stop-color="#fff"/><stop offset="1" stop-color="#fff" stop-opacity="0"/></linearGradient><linearGradient id="k"><stop offset="0" stop-color="#ea3231"/><stop offset="1" stop-color="#ea3231" stop-opacity="0"/></linearGradient><linearGradient id="f"><stop offset="0" stop-color="#ea1117"/><stop offset=".3695156" stop-color="#d3070e"/><stop offset="1" stop-color="#c10914" stop-opacity="0"/></linearGradient><linearGradient id="g"><stop offset="0" stop-color="#ea1117"/><stop offset="1" stop-color="#ea1117" stop-opacity="0"/></linearGradient><linearGradient id="h"><stop offset="0" stop-color="#f8ee46"/><stop offset="1" stop-color="#d3321c" stop-opacity="0"/></linearGradient><linearGradient id="e"><stop offset="0" stop-color="#ea1117"/><stop offset=".3695156" stop-color="#cd0d14"/><stop offset="1" stop-color="#c10914" stop-opacity="0"/></linearGradient><linearGradient id="L" x1="59.75" x2="63.5" y1="853.86218" y2="848.86218" gradientUnits="userSpaceOnUse" xlink:href="#i"/><linearGradient id="M" x1="65.5" x2="89" y1="878.36218" y2="879.86218" gradientUnits="userSpaceOnUse" xlink:href="#j"/><linearGradient id="N" x1="159.09903" x2="155.03316" y1="895.73804" y2="895.2077" gradientUnits="userSpaceOnUse" xlink:href="#k"/><linearGradient id="O" x1="201.5" x2="192.5" y1="859.36218" y2="865.86218" gradientUnits="userSpaceOnUse" xlink:href="#l"/><radialGradient id="t" cx="355.6181" cy="263.47437" r="214.64285" fx="355.6181" fy="263.47437" gradientTransform="matrix(.4959 .02361 -.04757 .99887 191.79733 -8.0995301)" gradientUnits="userSpaceOnUse" xlink:href="#a"/><radialGradient id="u" cx="688.20172" cy="322.61343" r="214.64285" fx="688.20172" fy="322.61343" gradientTransform="matrix(.18892 .2086 -.7412 .67128 623.54686 -26.528142)" gradientUnits="userSpaceOnUse" xlink:href="#a"/><radialGradient id="v" cx="-50.826534" cy="568.55469" r="214.64285" fx="-50.826534" fy="568.55469" gradientTransform="matrix(.24198 -.24252 .7211 .7195 -205.95295 -86.121137)" gradientUnits="userSpaceOnUse" xlink:href="#a"/><radialGradient id="w" cx="143.2925" cy="560.57587" r="214.64285" fx="143.2925" fy="560.57587" gradientTransform="matrix(.55737 1.1227 -1.01534 .50407 651.47245 105.56632)" gradientUnits="userSpaceOnUse" xlink:href="#b"/><radialGradient id="x" cx="359.53653" cy="680.74078" r="214.64285" fx="359.53653" fy="680.74078" gradientTransform="matrix(.5943 -.01968 .0331 .99945 124.48576 7.5040537)" gradientUnits="userSpaceOnUse" xlink:href="#c"/><radialGradient id="y" cx="549.07318" cy="531.27026" r="214.64285" fx="549.07318" fy="531.27026" gradientTransform="matrix(-.28951 .61898 -1.02617 -.47997 1253.2096 446.39787)" gradientUnits="userSpaceOnUse" xlink:href="#d"/><radialGradient id="G" cx="137.3555" cy="130.31177" r="87.547356" fx="137.3555" fy="130.31177" gradientUnits="userSpaceOnUse" xlink:href="#e"/><radialGradient id="H" cx="137.3555" cy="130.31177" r="87.547356" fx="137.3555" fy="130.31177" gradientUnits="userSpaceOnUse" xlink:href="#f"/><radialGradient id="I" cx="126.875" cy="125.125" r="44.125" fx="126.875" fy="125.125" gradientUnits="userSpaceOnUse" xlink:href="#g"/><radialGradient id="J" cx="493.20697" cy="120.2355" r="20.152544" fx="493.20697" fy="120.2355" gradientTransform="matrix(.75622 0 0 .75622 120.23455 29.311144)" gradientUnits="userSpaceOnUse" xlink:href="#h"/><radialGradient id="z" cx="565.67145" cy="446.36511" r="214.64285" fx="565.67145" fy="446.36511" gradientTransform="matrix(-.01141 .72002 -.98807 -.01567 1003.895 64.801116)" gradientUnits="userSpaceOnUse" xlink:href="#m"/><radialGradient id="A" cx="525.8512" cy="583.23352" r="214.64285" fx="525.8512" fy="583.23352" gradientTransform="matrix(-.1302 .14666 -.25942 -.2303 735.49435 657.5781)" gradientUnits="userSpaceOnUse" xlink:href="#n"/><radialGradient id="B" cx="338.53104" cy="703.86841" r="214.64285" fx="338.53104" fy="703.86841" gradientTransform="matrix(-.27995 .00915 -.01236 -.378 464.47395 950.87477)" gradientUnits="userSpaceOnUse" xlink:href="#o"/><radialGradient id="C" cx="241.97748" cy="591.31604" r="214.64285" fx="241.97748" fy="591.31604" gradientTransform="matrix(.0653 .07877 -.51364 .42582 480.05196 325.10195)" gradientUnits="userSpaceOnUse" xlink:href="#p"/><radialGradient id="D" cx="148.8054" cy="479.24811" r="214.64285" fx="148.8054" fy="479.24811" gradientTransform="matrix(.03415 .69196 -1.31623 .06495 774.52389 345.15386)" gradientUnits="userSpaceOnUse" xlink:href="#q"/><radialGradient id="E" cx="361.88593" cy="270.58835" r="214.64285" fx="361.88593" fy="270.58835" gradientTransform="matrix(.50254 .02883 -.05729 .99836 195.52495 -9.9903306)" gradientUnits="userSpaceOnUse" xlink:href="#r"/><radialGradient id="F" cx="113.19639" cy="362.84845" r="214.64285" fx="113.19639" fy="362.84845" gradientTransform="matrix(-.08238 .11534 -.81373 -.58124 490.52721 552.42839)" gradientUnits="userSpaceOnUse" xlink:href="#s"/><filter id="K" color-interpolation-filters="sRGB"><feGaussianBlur stdDeviation=".7964453"/></filter><filter id="P" width="1.0297188" height="1.2134721" x="-.0148593" y="-.1067361" color-interpolation-filters="sRGB"><feGaussianBlur stdDeviation=".4933764"/></filter><filter id="Q" color-interpolation-filters="sRGB"><feGaussianBlur stdDeviation=".3683278"/></filter></defs><path fill="#5d5f5f" d="M255.0403772 127.9999993a127.0403717 127.0403717 0 11-254.0807435 0 127.0403717 127.0403717 0 11254.0807435 0z"/><path fill="url(#t)" d="M568.57141 471.29074a214.64285 214.64285 0 11-429.2857 0 214.64285 214.64285 0 11429.2857 0z" transform="matrix(.59187 0 0 .59187 -81.47921 -150.94221)"/><path fill="url(#u)" d="M568.57141 471.29074a214.64285 214.64285 0 11-429.2857 0 214.64285 214.64285 0 11429.2857 0z" transform="matrix(.59187 0 0 .59187 -81.47921 -150.94221)"/><path fill="url(#v)" d="M568.57141 471.29074a214.64285 214.64285 0 11-429.2857 0 214.64285 214.64285 0 11429.2857 0z" transform="matrix(.59187 0 0 .59187 -81.47921 -150.94221)"/><path fill="url(#w)" d="M568.57141 471.29074a214.64285 214.64285 0 11-429.2857 0 214.64285 214.64285 0 11429.2857 0z" transform="matrix(.59187 0 0 .59187 -81.47921 -150.94221)"/><path fill="url(#x)" d="M568.57141 471.29074a214.64285 214.64285 0 11-429.2857 0 214.64285 214.64285 0 11429.2857 0z" transform="matrix(.59187 0 0 .59187 -81.47921 -150.94221)"/><path fill="url(#y)" d="M568.57141 471.29074a214.64285 214.64285 0 11-429.2857 0 214.64285 214.64285 0 11429.2857 0z" transform="matrix(.59187 0 0 .59187 -81.47921 -150.94221)"/><g><path fill="#706062" d="M249.3835182 127.9999991a121.3835174 121.3835174 0 11-242.7670347 0 121.3835174 121.3835174 0 11242.7670347 0z"/><path fill="#767676" d="M249.3835182 127.9999991a121.3835174 121.3835174 0 11-242.7670347 0 121.3835174 121.3835174 0 11242.7670347 0z"/><path fill="url(#z)" d="M568.57141 471.29074a214.64285 214.64285 0 11-429.2857 0 214.64285 214.64285 0 11429.2857 0z" transform="matrix(.56551 0 0 .56551 -72.151523 -138.52147)"/><path fill="url(#A)" d="M568.57141 471.29074a214.64285 214.64285 0 11-429.2857 0 214.64285 214.64285 0 11429.2857 0z" transform="matrix(.56551 0 0 .56551 -72.151523 -138.52147)"/><path fill="url(#B)" d="M568.57141 471.29074a214.64285 214.64285 0 11-429.2857 0 214.64285 214.64285 0 11429.2857 0z" transform="matrix(.56551 0 0 .56551 -72.151523 -138.52147)"/><path fill="url(#C)" d="M568.57141 471.29074a214.64285 214.64285 0 11-429.2857 0 214.64285 214.64285 0 11429.2857 0z" transform="matrix(.56551 0 0 .56551 -72.151523 -138.52147)"/><path fill="url(#D)" d="M568.57141 471.29074a214.64285 214.64285 0 11-429.2857 0 214.64285 214.64285 0 11429.2857 0z" transform="matrix(.56551 0 0 .56551 -72.151523 -138.52147)"/><path fill="url(#E)" d="M568.57141 471.29074a214.64285 214.64285 0 11-429.2857 0 214.64285 214.64285 0 11429.2857 0z" transform="matrix(.56551 0 0 .56551 -72.151523 -138.52147)"/><path fill="url(#F)" d="M568.57141 471.29074a214.64285 214.64285 0 11-429.2857 0 214.64285 214.64285 0 11429.2857 0z" transform="matrix(.56551 0 0 .56551 -72.151523 -138.52147)"/></g><g><path stroke="#000" stroke-width=".51198" d="M237.893034 127.9999995a109.893033 109.893033 0 11-219.7860662 0 109.893033 109.893033 0 11219.7860661 0z"/><path fill="url(#G)" d="M224.15285 130.31177a86.797356 86.797356 0 11-173.594706 0 86.797356 86.797356 0 11173.594706 0z" opacity=".3805032" transform="matrix(.74942 0 0 .74942 25.0635458 30.3422264)"/><path fill="url(#H)" d="M224.15285 130.31177a86.797356 86.797356 0 11-173.594706 0 86.797356 86.797356 0 11173.594706 0z" transform="translate(-9.3554995 -2.3117736)"/><path fill="url(#I)" d="M170.25 125.125a43.375 43.375 0 11-86.75 0 43.375 43.375 0 1186.75 0z" transform="translate(1.1249998 4.8749964)"/><path fill="url(#J)" d="M513.35951 120.2355a20.152544 20.152544 0 11-40.30508 0 20.152544 20.152544 0 1140.30508 0z" transform="matrix(1.68432 0 0 1.68432 -702.7171302 -74.5147536)"/><path fill="#f4f846" d="M131.5355298 127.9999976a3.5355348 3.5355348 0 11-7.0710696 0 3.5355348 3.5355348 0 117.0710696 0z"/><g><g filter="url(#K)" transform="translate(-2e-7 -796.3621836)"><path fill="#c9c9bf" d="M98.20252 833.52304l2.12132 8.3085c15.36068-5.88046 45.97986-3.83259 61.87184 3.71231l1.59099-8.3085c-20.00139-8.68106-51.38767-8.07075-65.58415-3.71231z"/><path fill="url(#L)" d="M58.60454 849.25616c-13.04121 17.05062-17.38118 27.71714-19.09189 37.29989 3.26274-1.56268 4.80687-4.56751 6.34116-7.26083 6.11733-9.48606 12.36426-19.07676 21.05923-25.44286z"/><path fill="url(#M)" d="M58.60454 877.71721l11.3137-8.3085 9.54595 9.36916-10.78338 4.5962z" opacity=".5377359"/><path fill="#fff" d="M111.10722 853.49881c9.39243-1.29788 19.13002-.86996 28.99137.17677.56932 2.02341.78297 4.40249.88389 6.89429-9.25131-.68705-18.50263-1.334-27.75394-.17677-.425-2.01599-1.22929-4.41128-2.12132-6.89429z" opacity=".5377359"/><path fill="#816461" d="M178.81269 871.17648l-5.12652 6.54073c2.70117.95519 6.19764 2.10921 10.78337 3.53554 1.18577-1.42148 2.82121-3.29262 4.94975-5.65686-2.93649-1.67282-6.26255-3.21578-10.6066-4.41941z"/><path fill="#f15e4f" d="M91.66178 896.98587l5.12652-3.88909 2.2981 3.53554-3.88909 3.18198z"/><path fill="#ec4e3e" d="M118.88539 882.31341c5.81338-.94098 11.07456-.22537 16.44023.17677l-.35355 3.18198c-5.24438-.1614-10.48875-.5541-15.73313.17678z"/><path fill="#e66044" d="M119.76927 895.21811c7.32697-1.53523 13.82111-1.00484 19.26866 2.12132l1.41422-2.82843c-7.72213-3.49102-16.3628-3.26623-21.38998-1.59099z"/><path fill="url(#N)" d="M160.25114 898.75364l2.12132-3.0052-4.94975-2.2981-2.65165 2.2981z"/><path fill="#f74639" d="M155.30139 906.70859c-2.27582-3.53407-2.72679-5.37411-4.77297-7.07107l-1.59099 1.06066c2.46956 2.24316 4.48363 4.82793 6.01041 7.77818z"/><path fill="#ef4d2b" d="M132.4972 901.40529c-2.88735-.75674-5.77471-.58908-8.66206-.17678v-1.94454c2.70228-.8158 5.54755-.77368 8.48528-.17678z"/><path fill="#eb5241" d="M108.63234 900.52141c-3.03319 2.75901-5.03926 5.90318-6.18718 9.36916l-1.06066-1.06066c1.17722-3.76435 2.99712-7.35399 6.0104-10.42982z"/><path fill="#f7432e" d="M110.57688 908.47636l1.06067-2.47488-2.65166-1.06066-1.23743 2.47488zM146.99288 908.29958l1.23744-1.94454-2.12132-1.23744-1.76777 1.41421z"/><path fill="url(#O)" d="M191.57094 855.65046l4.77297-4.06587c8.44599 4.49145 14.50078 13.36678 20.15255 22.98097l-2.47488 2.47488c-7.3081-7.48088-14.67726-14.83965-22.45064-21.38998z"/></g><path fill="#35373c" d="M128 26.25c-12.15497 0-23.81896 2.153186-34.625 6.0625l2.34375.15625C105.86477 29.075845 116.71287 28.25 128 28.25c15.02248 0 29.28979 2.249441 42.125 8.09375l2.9375.40625c-13.58318-6.72064-28.88136-10.5-45.0625-10.5z" filter="url(#P)" opacity=".9308176" transform="translate(-2e-7 -.0000036)"/><path fill="#bab7b2" d="M49.71875 63c-3.710692 4.46453-7.055598 9.251252-9.96875 14.3125l.1875.03125c1.24315-2.050869 3.554075-4.055585 4.931758-6.00967 1.73058-2.454631 3.566499-5.829368 5.505742-8.11533z" filter="url(#Q)" opacity=".3930818" transform="translate(-2e-7 -.0000036)"/></g></g></svg>